# Created by FreeCAD <http://www.freecadweb.org>
v 0.000000 0.000000 0.000000
v 480.000000 0.000000 0.000000
v -0.000000 -0.000000 60.000000
v 480.000000 -0.000000 60.000000
v 0.000000 480.000000 0.000000
v -0.000000 480.000000 60.000000
v 480.000000 480.000000 0.000000
v 480.000000 480.000000 60.000000
v 390.000000 90.000000 15.000000
v 90.000000 90.000000 15.000000
v 90.000000 390.000000 15.000000
v 390.000000 390.000000 15.000000
v 185.500000 219.000000 15.000000
v 144.500000 219.000000 15.000000
v 144.500000 260.000000 15.000000
v 185.500000 260.000000 15.000000
v 294.500000 219.000000 15.000000
v 294.500000 260.000000 15.000000
v 335.500000 219.000000 15.000000
v 335.500000 260.000000 15.000000
v 294.500000 260.000000 5.000000
v 294.500000 219.000000 5.000000
v 335.500000 219.000000 5.000000
v 335.500000 260.000000 5.000000
v 144.500000 260.000000 5.000000
v 144.500000 219.000000 5.000000
v 185.500000 219.000000 5.000000
v 185.500000 260.000000 5.000000
vn 0.000000 -1.000000 -0.000000
vn -0.000000 -1.000000 -0.000000
vn -1.000000 -0.000000 -0.000000
vn -1.000000 0.000000 -0.000000
vn 1.000000 0.000000 -0.000000
vn 1.000000 -0.000000 0.000000
vn 0.000000 0.000000 -1.000000
vn 0.000000 0.000000 -1.000000
vn 0.000000 0.447214 0.894427
vn 0.000000 0.447214 0.894427
vn 0.000000 1.000000 -0.000000
vn 0.000000 1.000000 0.000000
vn 0.447214 -0.000000 0.894427
vn 0.447214 0.000000 0.894427
vn -0.447214 0.000000 0.894427
vn -0.447214 0.000000 0.894427
vn 0.000000 0.000000 1.000000
vn 0.000000 0.000000 1.000000
vn 0.000000 0.000000 1.000000
vn 0.000000 0.000000 1.000000
vn 0.000000 0.000000 1.000000
vn 0.000000 0.000000 1.000000
vn 0.000000 0.000000 1.000000
vn 0.000000 0.000000 1.000000
vn 0.000000 0.000000 1.000000
vn 0.000000 0.000000 1.000000
vn 0.000000 0.000000 1.000000
vn 0.000000 0.000000 1.000000
vn 0.000000 0.000000 1.000000
vn 0.000000 0.000000 1.000000
vn 0.000000 -0.447214 0.894427
vn 0.000000 -0.447214 0.894427
vn 1.000000 0.000000 0.000000
vn 1.000000 0.000000 0.000000
vn 0.000000 1.000000 0.000000
vn -0.000000 1.000000 0.000000
vn -1.000000 0.000000 0.000000
vn -1.000000 0.000000 0.000000
vn 0.000000 -1.000000 0.000000
vn -0.000000 -1.000000 -0.000000
vn 1.000000 0.000000 0.000000
vn 1.000000 0.000000 0.000000
vn 0.000000 1.000000 0.000000
vn -0.000000 1.000000 0.000000
vn -1.000000 0.000000 0.000000
vn -1.000000 0.000000 0.000000
vn 0.000000 -1.000000 0.000000
vn -0.000000 -1.000000 -0.000000
vn 0.000000 0.000000 1.000000
vn 0.000000 0.000000 1.000000
vn 0.000000 0.000000 1.000000
vn 0.000000 0.000000 1.000000
f 1//1 2//1 3//1
f 3//2 2//2 4//2
f 5//3 1//3 6//3
f 6//4 1//4 3//4
f 2//5 7//5 4//5
f 4//6 7//6 8//6
f 1//7 7//7 2//7
f 5//8 7//8 1//8
f 9//9 10//9 4//9
f 10//10 3//10 4//10
f 7//11 5//11 8//11
f 8//12 5//12 6//12
f 10//13 11//13 3//13
f 11//14 6//14 3//14
f 12//15 9//15 8//15
f 9//16 4//16 8//16
f 13//17 14//17 10//17
f 15//18 10//18 14//18
f 11//19 15//19 16//19
f 11//20 10//20 15//20
f 17//21 10//21 9//21
f 17//22 16//22 13//22
f 17//23 13//23 10//23
f 18//24 16//24 17//24
f 19//25 17//25 9//25
f 20//26 19//26 9//26
f 12//27 18//27 20//27
f 12//28 11//28 16//28
f 12//29 16//29 18//29
f 12//30 20//30 9//30
f 11//31 12//31 6//31
f 12//32 8//32 6//32
f 21//33 17//33 22//33
f 18//34 17//34 21//34
f 22//35 19//35 23//35
f 17//36 19//36 22//36
f 23//37 20//37 24//37
f 19//38 20//38 23//38
f 24//39 18//39 21//39
f 20//40 18//40 24//40
f 25//41 14//41 26//41
f 15//42 14//42 25//42
f 26//43 13//43 27//43
f 14//44 13//44 26//44
f 27//45 16//45 28//45
f 13//46 16//46 27//46
f 28//47 15//47 25//47
f 16//48 15//48 28//48
f 24//49 21//49 23//49
f 23//50 21//50 22//50
f 28//51 25//51 27//51
f 27//52 25//52 26//52
