# Created by FreeCAD <http://www.freecadweb.org>
v 160.000000 0.000000 30.000000
v 160.000000 1.000000 29.000000
v 160.000000 0.000000 31.000000
v 160.000000 160.000000 31.000000
v 160.000000 159.000000 29.000000
v 160.000000 160.000000 30.000000
v 131.000000 130.000000 0.000000
v 30.000000 130.000000 -0.000000
v 0.000000 160.000000 30.000000
v 131.000000 30.000000 0.000000
v 0.000000 160.000000 31.000000
v 30.000000 30.000000 -0.000000
v -0.000000 0.000000 30.000000
v 1.000001 30.000000 31.000000
v 0.000000 0.000000 31.000000
v 1.000001 1.000100 31.000000
v 30.000000 1.000100 31.000000
v 158.999893 1.000100 31.000000
v 130.000000 1.000100 31.000000
v 1.000001 130.000000 31.000000
v 1.000001 158.998993 31.000000
v 30.000000 158.998993 31.000000
v 158.999893 30.000000 31.000000
v 158.999893 158.998993 31.000000
v 158.999893 130.000000 31.000000
v 130.000900 130.000000 2.001000
v 30.000000 130.000000 2.001000
v 29.999001 130.000000 2.001000
v 130.000000 30.000000 2.000100
v 130.000000 130.000000 2.000100
v 29.999901 30.000000 2.000100
v 30.000000 130.000000 2.000001
v 30.000000 30.000000 2.000100
v 130.000000 130.000000 2.000000
v 30.000000 130.000000 2.000000
v 130.000000 30.000000 2.000000
v 30.000000 30.000000 2.000001
v 30.000000 30.000000 2.000000
vn 1.000000 -0.000000 0.000000
vn 1.000000 0.000000 -0.000000
vn 1.000000 0.000000 0.000000
vn 1.000000 0.000000 0.000000
vn 0.000000 0.707107 -0.707107
vn 0.000000 0.707107 -0.707107
vn 0.000000 0.707107 -0.707107
vn 0.707107 0.000000 -0.707107
vn 0.707107 0.000000 -0.707107
vn 0.000000 1.000000 -0.000000
vn 0.000000 1.000000 0.000000
vn 0.000000 -0.707107 -0.707107
vn 0.000000 -0.707107 -0.707107
vn 0.000000 -0.707107 -0.707107
vn 0.000000 0.000000 1.000000
vn 0.000000 0.000000 1.000000
vn 0.000000 0.000000 1.000000
vn 0.000000 0.000000 1.000000
vn 0.000000 0.000000 1.000000
vn 0.000000 0.000000 1.000000
vn 0.000000 0.000000 1.000000
vn 0.000000 0.000000 1.000000
vn 0.000000 0.000000 1.000000
vn 0.000000 0.000000 1.000000
vn 0.000000 0.000000 1.000000
vn 0.000000 0.000000 1.000000
vn 0.000000 -0.000000 1.000000
vn 0.000000 0.000000 1.000000
vn 0.000000 0.000000 1.000000
vn 0.000000 -1.000000 0.000000
vn 0.000000 -1.000000 0.000000
vn 0.000000 0.000000 -1.000000
vn 0.000000 0.000000 -1.000000
vn -0.707107 -0.000000 -0.707107
vn -0.707107 0.000000 -0.707107
vn -1.000000 0.000000 0.000000
vn -1.000000 0.000000 0.000000
vn 0.000000 -0.707107 0.707107
vn 0.000000 -0.707107 0.707107
vn -0.707107 0.000000 0.707107
vn 0.000000 -0.707107 0.707107
vn 0.000000 -0.707107 0.707107
vn -0.707107 0.000000 0.707107
vn -0.707107 0.000000 0.707107
vn -0.707013 0.000000 0.707200
vn 0.707107 0.000000 0.707107
vn 0.707107 -0.000000 0.707107
vn 0.707107 0.000000 0.707107
vn 0.706938 -0.000000 0.707275
vn 0.707107 0.000000 0.707107
vn -0.707107 0.000000 0.707107
vn 0.000000 0.707107 0.707107
vn 0.000000 0.707107 0.707107
vn 0.000000 0.707107 0.707107
vn 0.000000 0.707107 0.707107
vn 0.000000 -1.000000 -0.000000
vn 0.000000 -1.000000 0.000000
vn -0.000000 -1.000000 0.000000
vn -0.000000 -1.000000 0.000000
vn -1.000000 0.000000 0.000000
vn -1.000000 0.000000 0.000000
vn 0.000000 1.000000 0.000000
vn -0.000000 1.000000 0.000000
vn -0.000000 1.000000 0.000000
vn 1.000000 0.000000 0.000000
vn 1.000000 0.000000 0.000000
vn 0.000000 0.000000 1.000000
vn 0.000000 0.000000 1.000000
f 1//1 2//1 3//1
f 2//2 4//2 3//2
f 4//3 5//3 6//3
f 2//4 5//4 4//4
f 5//5 7//5 6//5
f 6//6 8//6 9//6
f 7//7 8//7 6//7
f 10//8 5//8 2//8
f 10//9 7//9 5//9
f 6//10 9//10 4//10
f 4//11 9//11 11//11
f 12//12 1//12 13//12
f 1//13 10//13 2//13
f 12//14 10//14 1//14
f 14//15 15//15 16//15
f 17//16 16//16 15//16
f 18//17 19//17 3//17
f 11//18 20//18 21//18
f 22//19 11//19 21//19
f 23//20 18//20 3//20
f 4//21 22//21 24//21
f 4//22 24//22 25//22
f 15//23 3//23 19//23
f 15//24 19//24 17//24
f 11//25 15//25 14//25
f 11//26 14//26 20//26
f 3//27 4//27 25//27
f 3//28 25//28 23//28
f 4//29 11//29 22//29
f 13//30 1//30 15//30
f 15//31 1//31 3//31
f 8//32 7//32 12//32
f 12//33 7//33 10//33
f 8//34 12//34 9//34
f 9//35 12//35 13//35
f 9//36 13//36 11//36
f 11//37 13//37 15//37
f 22//38 26//38 24//38
f 27//39 26//39 22//39
f 26//40 25//40 24//40
f 28//41 27//41 22//41
f 28//42 22//42 21//42
f 26//43 23//43 25//43
f 26//44 29//44 23//44
f 30//45 29//45 26//45
f 28//46 21//46 20//46
f 14//47 28//47 20//47
f 31//48 14//48 16//48
f 31//49 32//49 28//49
f 31//50 28//50 14//50
f 29//51 18//51 23//51
f 19//52 33//52 17//52
f 29//53 19//53 18//53
f 29//54 33//54 19//54
f 31//55 16//55 17//55
f 30//56 32//56 34//56
f 34//57 32//57 35//57
f 30//58 27//58 32//58
f 26//59 27//59 30//59
f 36//60 30//60 34//60
f 29//61 30//61 36//61
f 37//62 36//62 38//62
f 37//63 29//63 36//63
f 31//64 29//64 37//64
f 32//65 37//65 35//65
f 35//66 37//66 38//66
f 34//67 38//67 36//67
f 34//68 35//68 38//68
